# This file uses centimeters as units for non-parametric coordinates.

mtllib MiniCannon.mtl
g default
v 0.146859 -0.044888 -0.605646
v 0.536241 -0.044888 -0.605646
v 0.146859 0.044888 -0.605646
v 0.536241 0.044888 -0.605646
v 0.146859 0.044888 -0.995029
v 0.536241 0.044888 -0.995029
v 0.146859 -0.044888 -0.995029
v 0.536241 -0.044888 -0.995029
v 0.146859 -0.044888 0.858699
v 0.536241 -0.044888 0.858699
v 0.146859 0.044888 0.858699
v 0.536241 0.044888 0.858699
v 0.146859 0.044888 0.469316
v 0.536241 0.044888 0.469316
v 0.146859 -0.044888 0.469316
v 0.536241 -0.044888 0.469316
v 0.900182 0.001308 -0.087360
v 0.782656 0.001305 -0.351378
v 0.474962 0.001303 -0.514550
v 0.094632 0.001299 -0.514550
v -0.213060 0.001296 -0.351378
v -0.330589 0.001294 -0.087361
v -0.213061 0.001296 0.176657
v 0.094632 0.001299 0.339829
v 0.474962 0.001303 0.339829
v 0.782656 0.001305 0.176658
v -0.027486 0.927357 -0.087360
v -0.086096 0.868747 -0.342461
v -0.239539 0.715303 -0.500122
v -0.429205 0.525637 -0.500122
v -0.582648 0.372194 -0.342461
v -0.641258 0.313584 -0.087361
v -0.582648 0.372194 0.167740
v -0.429205 0.525637 0.325401
v -0.239539 0.715303 0.325401
v -0.086096 0.868747 0.167740
v 0.049236 1.004078 -0.087360
v -0.024027 0.930816 -0.406236
v -0.215831 0.739012 -0.603312
v -0.452913 0.501929 -0.603312
v -0.644718 0.310125 -0.406236
v -0.717980 0.236862 -0.087361
v -0.644718 0.310125 0.231515
v -0.452914 0.501929 0.428591
v -0.215831 0.739012 0.428591
v -0.024027 0.930816 0.231515
v 1.054029 0.001309 -0.087360
v 0.907119 0.001307 -0.417383
v 0.522503 0.001303 -0.621348
v 0.047092 0.001298 -0.621348
v -0.337524 0.001294 -0.417383
v -0.484434 0.001293 -0.087361
v -0.337524 0.001295 0.242662
v 0.047092 0.001298 0.446627
v 0.522503 0.001303 0.446627
v 0.907119 0.001307 0.242662
vt 0.727361 0.001319
vt 0.857834 0.001319
vt 0.727361 0.131792
vt 0.857834 0.131792
vt 0.727361 0.262265
vt 0.857834 0.262265
vt 0.727361 0.392737
vt 0.857834 0.392737
vt 0.727361 0.523210
vt 0.857834 0.523210
vt 0.988306 0.001319
vt 0.988306 0.131792
vt 0.596888 0.001319
vt 0.596888 0.131792
vt 0.727361 0.001319
vt 0.857834 0.001319
vt 0.857834 0.131792
vt 0.727361 0.131792
vt 0.857834 0.262265
vt 0.727361 0.262265
vt 0.857834 0.392737
vt 0.727361 0.392737
vt 0.857834 0.523210
vt 0.727361 0.523210
vt 0.988306 0.001319
vt 0.988306 0.131792
vt 0.596888 0.001319
vt 0.596888 0.131792
vt 0.118706 0.954520
vt 0.051575 0.954520
vt 0.051575 0.786694
vt 0.118706 0.786694
vt 0.185836 0.954520
vt 0.185836 0.786694
vt 0.252967 0.954520
vt 0.252967 0.786694
vt 0.320098 0.954520
vt 0.320098 0.786694
vt 0.387228 0.954520
vt 0.387228 0.786694
vt 0.454359 0.954520
vt 0.454359 0.786694
vt 0.521489 0.954520
vt 0.521489 0.786694
vt 0.588620 0.954520
vt 0.588620 0.786694
vt 0.655750 0.954520
vt 0.655750 0.786694
vt 0.722881 0.954520
vt 0.722881 0.786694
vt 0.051575 0.618868
vt 0.118706 0.618868
vt 0.185836 0.618868
vt 0.252967 0.618868
vt 0.320098 0.618868
vt 0.387228 0.618868
vt 0.454359 0.618868
vt 0.521489 0.618868
vt 0.588620 0.618868
vt 0.655750 0.618868
vt 0.722881 0.618868
vt 0.051575 0.451041
vt 0.118706 0.451041
vt 0.185836 0.451041
vt 0.252967 0.451041
vt 0.320098 0.451041
vt 0.387228 0.451041
vt 0.454359 0.451041
vt 0.521489 0.451041
vt 0.588620 0.451041
vt 0.655750 0.451041
vt 0.722881 0.451041
vt 0.051575 0.283215
vt 0.118706 0.283215
vt 0.185836 0.283215
vt 0.252967 0.283215
vt 0.320098 0.283215
vt 0.387228 0.283215
vt 0.454359 0.283215
vt 0.521489 0.283215
vt 0.588620 0.283215
vt 0.655750 0.283215
vt 0.722881 0.283215
vn 0.000000 0.000000 1.000000
vn 0.000000 0.000000 1.000000
vn 0.000000 0.000000 1.000000
vn 0.000000 0.000000 1.000000
vn 0.000000 1.000000 0.000000
vn 0.000000 1.000000 0.000000
vn 0.000000 1.000000 0.000000
vn 0.000000 1.000000 0.000000
vn 0.000000 0.000000 -1.000000
vn 0.000000 0.000000 -1.000000
vn 0.000000 0.000000 -1.000000
vn 0.000000 0.000000 -1.000000
vn 0.000000 -1.000000 0.000000
vn 0.000000 -1.000000 0.000000
vn 0.000000 -1.000000 0.000000
vn 0.000000 -1.000000 0.000000
vn 1.000000 0.000000 0.000000
vn 1.000000 0.000000 0.000000
vn 1.000000 0.000000 0.000000
vn 1.000000 0.000000 0.000000
vn -1.000000 0.000000 0.000000
vn -1.000000 0.000000 0.000000
vn -1.000000 0.000000 0.000000
vn -1.000000 0.000000 0.000000
vn 0.000000 0.000000 1.000000
vn 0.000000 0.000000 1.000000
vn 0.000000 0.000000 1.000000
vn 0.000000 0.000000 1.000000
vn 0.000000 1.000000 0.000000
vn 0.000000 1.000000 0.000000
vn 0.000000 1.000000 0.000000
vn 0.000000 1.000000 0.000000
vn 0.000000 0.000000 -1.000000
vn 0.000000 0.000000 -1.000000
vn 0.000000 0.000000 -1.000000
vn 0.000000 0.000000 -1.000000
vn 0.000000 -1.000000 0.000000
vn 0.000000 -1.000000 0.000000
vn 0.000000 -1.000000 0.000000
vn 0.000000 -1.000000 0.000000
vn 1.000000 0.000000 0.000000
vn 1.000000 0.000000 0.000000
vn 1.000000 0.000000 0.000000
vn 1.000000 0.000000 0.000000
vn -1.000000 0.000000 0.000000
vn -1.000000 0.000000 0.000000
vn -1.000000 0.000000 0.000000
vn -1.000000 0.000000 0.000000
vn -0.672267 -0.674878 0.304299
vn -0.672267 -0.674878 0.304299
vn -0.672267 -0.674878 0.304298
vn -0.672267 -0.674878 0.304298
vn -0.415797 -0.428118 0.802389
vn -0.415797 -0.428118 0.802389
vn -0.415797 -0.428118 0.802389
vn -0.415797 -0.428118 0.802389
vn 0.005817 -0.017482 0.999830
vn 0.005817 -0.017482 0.999830
vn 0.005817 -0.017482 0.999830
vn 0.005817 -0.017482 0.999830
vn 0.427337 0.405398 0.808106
vn 0.427336 0.405398 0.808106
vn 0.427336 0.405398 0.808106
vn 0.427336 0.405398 0.808106
vn 0.676788 0.669901 0.305272
vn 0.676788 0.669901 0.305272
vn 0.676788 0.669901 0.305272
vn 0.676788 0.669901 0.305272
vn 0.676788 0.669901 -0.305272
vn 0.676788 0.669901 -0.305272
vn 0.676788 0.669901 -0.305272
vn 0.676788 0.669901 -0.305272
vn 0.427337 0.405398 -0.808106
vn 0.427337 0.405398 -0.808106
vn 0.427337 0.405398 -0.808106
vn 0.427337 0.405398 -0.808106
vn 0.005817 -0.017482 -0.999830
vn 0.005817 -0.017482 -0.999830
vn 0.005817 -0.017482 -0.999830
vn 0.005817 -0.017482 -0.999830
vn -0.415797 -0.428118 -0.802389
vn -0.415797 -0.428118 -0.802389
vn -0.415797 -0.428118 -0.802389
vn -0.415797 -0.428118 -0.802389
vn -0.672267 -0.674877 -0.304299
vn -0.672267 -0.674877 -0.304299
vn -0.672267 -0.674877 -0.304299
vn -0.672267 -0.674877 -0.304299
vn -0.707107 0.707107 -0.000000
vn -0.707107 0.707107 0.000000
vn -0.707107 0.707107 0.000000
vn -0.707107 0.707107 -0.000000
vn -0.707107 0.707107 0.000000
vn -0.707107 0.707107 0.000000
vn -0.707107 0.707107 0.000000
vn -0.707107 0.707107 0.000000
vn -0.707107 0.707107 0.000000
vn -0.707107 0.707107 0.000000
vn -0.707107 0.707107 0.000000
vn -0.707107 0.707107 0.000000
vn -0.707107 0.707107 -0.000000
vn -0.707107 0.707107 -0.000000
vn -0.707107 0.707107 -0.000000
vn -0.707107 0.707107 0.000000
vn -0.707107 0.707107 0.000000
vn -0.707107 0.707107 0.000000
vn -0.707107 0.707107 -0.000000
vn -0.707107 0.707107 -0.000000
vn 0.672067 0.675095 -0.304256
vn 0.672067 0.675095 -0.304256
vn 0.672067 0.675095 -0.304256
vn 0.672067 0.675096 -0.304256
vn 0.415020 0.429621 -0.801988
vn 0.415020 0.429621 -0.801988
vn 0.415020 0.429621 -0.801988
vn 0.415020 0.429621 -0.801988
vn -0.007271 0.021851 -0.999735
vn -0.007271 0.021851 -0.999735
vn -0.007271 0.021851 -0.999735
vn -0.007271 0.021851 -0.999735
vn -0.430137 -0.399753 -0.809431
vn -0.430137 -0.399753 -0.809431
vn -0.430137 -0.399753 -0.809431
vn -0.430137 -0.399753 -0.809431
vn -0.678652 -0.667831 -0.305670
vn -0.678652 -0.667831 -0.305670
vn -0.678652 -0.667831 -0.305670
vn -0.678652 -0.667831 -0.305670
vn -0.678652 -0.667831 0.305670
vn -0.678652 -0.667831 0.305670
vn -0.678652 -0.667831 0.305670
vn -0.678652 -0.667831 0.305670
vn -0.430137 -0.399754 0.809431
vn -0.430137 -0.399754 0.809431
vn -0.430137 -0.399754 0.809431
vn -0.430137 -0.399754 0.809431
vn -0.007271 0.021850 0.999735
vn -0.007271 0.021850 0.999735
vn -0.007271 0.021850 0.999735
vn -0.007271 0.021850 0.999735
vn 0.415020 0.429620 0.801988
vn 0.415020 0.429620 0.801988
vn 0.415020 0.429620 0.801988
vn 0.415020 0.429620 0.801988
vn 0.672067 0.675096 0.304256
vn 0.672067 0.675096 0.304256
vn 0.672067 0.675096 0.304256
vn 0.672067 0.675096 0.304256
vn 0.000013 -1.000000 -0.000000
vn 0.000014 -1.000000 -0.000000
vn 0.000014 -1.000000 -0.000000
vn 0.000012 -1.000000 -0.000001
vn 0.000011 -1.000000 -0.000000
vn 0.000011 -1.000000 0.000001
vn 0.000010 -1.000000 0.000003
vn 0.000010 -1.000000 0.000003
vn 0.000010 -1.000000 0.000001
vn 0.000010 -1.000000 0.000001
vn 0.000010 -1.000000 0.000000
vn 0.000010 -1.000000 0.000000
vn 0.000010 -1.000000 -0.000000
vn 0.000010 -1.000000 -0.000001
vn 0.000010 -1.000000 -0.000002
vn 0.000010 -1.000000 -0.000002
vn 0.000011 -1.000000 0.000001
vn 0.000011 -1.000000 -0.000000
vn 0.000013 -1.000000 0.000000
vn 0.000013 -1.000000 0.000001
s off
g pCube3
usemtl initialShadingGroup
f 1/1/1 2/2/2 4/4/3 3/3/4
f 3/3/5 4/4/6 6/6/7 5/5/8
f 5/5/9 6/6/10 8/8/11 7/7/12
f 7/7/13 8/8/14 2/10/15 1/9/16
f 2/2/17 8/11/18 6/12/19 4/4/20
f 7/13/21 1/1/22 3/3/23 5/14/24
f 9/15/25 10/16/26 12/17/27 11/18/28
f 11/18/29 12/17/30 14/19/31 13/20/32
f 13/20/33 14/19/34 16/21/35 15/22/36
f 15/22/37 16/21/38 10/23/39 9/24/40
f 10/16/41 16/25/42 14/26/43 12/17/44
f 15/27/45 9/15/46 11/18/47 13/28/48
f 18/29/49 17/30/50 27/31/51 28/32/52
f 19/33/53 18/29/54 28/32/55 29/34/56
f 20/35/57 19/33/58 29/34/59 30/36/60
f 21/37/61 20/35/62 30/36/63 31/38/64
f 22/39/65 21/37/66 31/38/67 32/40/68
f 23/41/69 22/39/70 32/40/71 33/42/72
f 24/43/73 23/41/74 33/42/75 34/44/76
f 25/45/77 24/43/78 34/44/79 35/46/80
f 26/47/81 25/45/82 35/46/83 36/48/84
f 17/49/85 26/47/86 36/48/87 27/50/88
s 1
f 28/32/89 27/31/90 37/51/91 38/52/92
f 29/34/93 28/32/89 38/52/92 39/53/94
f 30/36/95 29/34/93 39/53/94 40/54/96
f 31/38/97 30/36/95 40/54/96 41/55/98
f 32/40/99 31/38/97 41/55/98 42/56/100
f 33/42/101 32/40/99 42/56/100 43/57/102
f 34/44/103 33/42/101 43/57/102 44/58/104
f 35/46/105 34/44/103 44/58/104 45/59/106
f 36/48/107 35/46/105 45/59/106 46/60/108
f 27/50/90 36/48/107 46/60/108 37/61/91
s off
f 38/52/109 37/51/110 47/62/111 48/63/112
f 39/53/113 38/52/114 48/63/115 49/64/116
f 40/54/117 39/53/118 49/64/119 50/65/120
f 41/55/121 40/54/122 50/65/123 51/66/124
f 42/56/125 41/55/126 51/66/127 52/67/128
f 43/57/129 42/56/130 52/67/131 53/68/132
f 44/58/133 43/57/134 53/68/135 54/69/136
f 45/59/137 44/58/138 54/69/139 55/70/140
f 46/60/141 45/59/142 55/70/143 56/71/144
f 37/61/145 46/60/146 56/71/147 47/72/148
s 2
f 48/63/149 47/62/150 17/73/151 18/74/152
f 49/64/153 48/63/149 18/74/152 19/75/154
f 50/65/155 49/64/153 19/75/154 20/76/156
f 51/66/157 50/65/155 20/76/156 21/77/158
f 52/67/159 51/66/157 21/77/158 22/78/160
f 53/68/161 52/67/159 22/78/160 23/79/162
f 54/69/163 53/68/161 23/79/162 24/80/164
f 55/70/165 54/69/163 24/80/164 25/81/166
f 56/71/167 55/70/165 25/81/166 26/82/168
f 47/72/150 56/71/167 26/82/168 17/83/151
