# This file uses centimeters as units for non-parametric coordinates.

mtllib platform.mtl
g default
v -2.438534 -0.436751 4.247494
v -1.828901 -0.436751 4.247494
v -1.219267 -0.436751 4.247494
v -0.609634 -0.436751 4.247494
v 0.000000 -0.436751 4.247494
v 0.609634 -0.436751 4.247494
v 1.219267 -0.436751 4.247494
v 1.828901 -0.436751 4.247494
v 2.438534 -0.436751 4.247494
v -2.438534 0.436751 4.247494
v -1.828901 0.436751 4.247494
v -1.219267 0.436751 4.247494
v -0.609634 0.436751 4.247494
v 0.000000 0.436751 4.247494
v 0.609634 0.436751 4.247494
v 1.219267 0.436751 4.247494
v 1.828901 0.436751 4.247494
v 2.438534 0.436751 4.247494
v -2.438534 0.436751 -4.247494
v -1.828901 0.436751 -4.247494
v -1.219267 0.436751 -4.247494
v -0.609634 0.436751 -4.247494
v 0.000000 0.436751 -4.247494
v 0.609634 0.436751 -4.247494
v 1.219267 0.436751 -4.247494
v 1.828901 0.436751 -4.247494
v 2.438534 0.436751 -4.247494
v -2.438534 -0.436751 -4.247494
v -1.828901 -0.436751 -4.247494
v -1.219267 -0.436751 -4.247494
v -0.609634 -0.436751 -4.247494
v 0.000000 -0.436751 -4.247494
v 0.609634 -0.436751 -4.247494
v 1.219267 -0.436751 -4.247494
v 1.828901 -0.436751 -4.247494
v 2.438534 -0.436751 -4.247494
v 1.219267 0.436751 -6.565256
v 1.828901 0.436751 -5.940982
v 1.828901 -0.436751 -5.940982
v 1.219267 -0.436751 -6.565256
v 2.438534 0.436751 -6.565256
v 2.438534 -0.436751 -6.565256
v -1.219267 0.436751 -6.506753
v -0.361269 0.436751 -7.542493
v -0.361269 -0.436751 -7.542493
v -1.219267 -0.436751 -6.506753
v -0.248365 0.436751 -7.542493
v -0.248365 -0.436751 -7.542493
v 0.609634 0.436751 -6.506753
v 0.609634 -0.436751 -6.506753
v -2.261786 0.436751 -5.728649
v -1.828901 0.436751 -7.266525
v -1.828901 -0.436751 -7.266525
v -2.261786 -0.436751 -5.728649
v -1.396015 0.436751 -5.728649
v -1.396015 -0.436751 -5.728649
vt 0.849071 0.088680
vt 0.814998 0.080661
vt 0.007521 -0.000000
vt 0.059229 -0.000000
vt 0.780010 0.075461
vt 0.059229 0.720526
vt 0.743864 0.072641
vt 0.007521 0.720526
vt 0.707262 0.071315
vt 0.110936 -0.000000
vt 0.670738 0.071350
vt 0.110936 0.720526
vt 0.634299 0.073009
vt 0.162644 -0.000000
vt 0.598110 0.077426
vt 0.162644 0.720526
vt 0.562983 0.083098
vt 0.518093 0.049722
vt 0.214352 -0.000000
vt 0.214352 0.720526
vt 0.825958 0.793635
vt 0.266060 -0.000000
vt 0.266060 0.720526
vt 0.631154 0.787922
vt 0.317767 -0.000000
vt 0.317767 0.720526
vt 0.486473 0.677760
vt 0.968729 0.748025
vt 0.369475 -0.000000
vt 0.942221 0.822762
vt 0.916470 0.758193
vt 0.879540 0.851994
vt 0.884961 0.791924
vt 0.800694 0.936191
vt 0.369475 0.720526
vt 0.723055 0.930810
vt 0.767465 0.892437
vt 0.421183 -0.000000
vt 0.718103 0.930414
vt 0.639473 0.920077
vt 0.679251 0.884427
vt 0.621897 0.720230
vt 0.665217 0.726224
vt 0.525284 0.890663
vt 0.421183 0.720526
vt 0.515855 0.801302
vt 0.525777 0.837188
vt 0.430652 0.806411
vt 0.481543 0.791886
vt 0.875574 0.687517
vt 0.835511 0.704475
vt 0.796503 0.727285
vt 0.752806 0.723521
vt 0.709075 0.722724
vt 0.581911 0.703661
vt 0.542119 0.689782
vt 0.982772 0.849314
vt 0.369475 0.864163
vt 0.317767 0.917113
vt 0.421183 0.917113
vt 0.932875 0.672289
vt 0.713503 0.988698
vt 0.183710 1.000000
vt 0.110936 0.912151
vt 0.723306 0.990949
vt 0.193286 1.000000
vt 0.473709 0.853369
vt 0.266060 0.912151
vt 0.059229 0.976593
vt 0.022512 0.846154
vt 0.624283 0.785056
vt 0.095945 0.846154
vt 0.892006 0.053282
vt 0.572282 0.018871
vt 0.621308 0.007764
vt 0.666006 0.004347
vt 0.708365 0.004470
vt 0.750203 0.006946
vt 0.793577 0.012496
vt 0.840770 0.024918
vn 0.000000 0.000000 1.000000
vn 0.000000 0.000000 1.000000
vn 0.000000 0.000000 1.000000
vn 0.000000 0.000000 1.000000
vn 0.000000 0.000000 1.000000
vn 0.000000 0.000000 1.000000
vn 0.000000 0.000000 1.000000
vn 0.000000 0.000000 1.000000
vn 0.000000 0.000000 1.000000
vn 0.000000 0.000000 1.000000
vn 0.000000 0.000000 1.000000
vn 0.000000 0.000000 1.000000
vn 0.000000 0.000000 1.000000
vn 0.000000 0.000000 1.000000
vn 0.000000 0.000000 1.000000
vn 0.000000 0.000000 1.000000
vn 0.000000 0.000000 1.000000
vn 0.000000 0.000000 1.000000
vn 0.000000 1.000000 0.000000
vn 0.000000 1.000000 0.000000
vn 0.000000 1.000000 0.000000
vn 0.000000 1.000000 0.000000
vn 0.000000 1.000000 0.000000
vn 0.000000 1.000000 0.000000
vn 0.000000 1.000000 0.000000
vn 0.000000 1.000000 0.000000
vn 0.000000 1.000000 0.000000
vn 0.000000 1.000000 0.000000
vn 0.000000 1.000000 0.000000
vn 0.000000 1.000000 0.000000
vn 0.000000 1.000000 0.000000
vn 0.000000 1.000000 0.000000
vn 0.000000 1.000000 0.000000
vn 0.000000 1.000000 0.000000
vn 0.000000 1.000000 0.000000
vn 0.000000 1.000000 0.000000
vn -0.962593 0.000000 -0.270953
vn 0.000000 0.000000 -1.000000
vn 0.000000 0.000000 -1.000000
vn -0.962593 0.000000 -0.270953
vn 0.962593 0.000000 -0.270953
vn 0.962593 0.000000 -0.270953
vn -0.770089 0.000000 -0.637936
vn -0.729574 0.000000 -0.683902
vn -0.729574 0.000000 -0.683902
vn -0.770089 0.000000 -0.637936
vn 0.729574 0.000000 -0.683902
vn 0.729574 0.000000 -0.683902
vn 0.770089 0.000000 -0.637936
vn 0.770089 0.000000 -0.637936
vn 0.000000 0.000000 -1.000000
vn 0.000000 0.000000 -1.000000
vn 0.000000 0.000000 -1.000000
vn 0.000000 0.000000 -1.000000
vn 0.715446 0.000000 -0.698668
vn 0.000000 0.000000 -1.000000
vn 0.000000 0.000000 -1.000000
vn 0.715446 0.000000 -0.698668
vn -0.715447 0.000000 -0.698668
vn -0.715447 0.000000 -0.698668
vn 0.000000 -1.000000 0.000000
vn 0.000000 -1.000000 0.000000
vn 0.000000 -1.000000 0.000000
vn 0.000000 -1.000000 0.000000
vn 0.000000 -1.000000 0.000000
vn 0.000000 -1.000000 0.000000
vn 0.000000 -1.000000 0.000000
vn 0.000000 -1.000000 0.000000
vn 0.000000 -1.000000 0.000000
vn 0.000000 -1.000000 0.000000
vn 0.000000 -1.000000 0.000000
vn 0.000000 -1.000000 0.000000
vn 0.000000 -1.000000 0.000000
vn 0.000000 -1.000000 0.000000
vn 0.000000 -1.000000 0.000000
vn 0.000000 -1.000000 0.000000
vn 0.000000 -1.000000 0.000000
vn 0.000000 -1.000000 0.000000
vn 1.000000 0.000000 0.000000
vn 1.000000 0.000000 0.000000
vn 1.000000 0.000000 0.000000
vn 1.000000 0.000000 0.000000
vn -1.000000 0.000000 0.000000
vn -1.000000 0.000000 0.000000
vn -1.000000 0.000000 0.000000
vn -1.000000 0.000000 0.000000
vn 0.000000 1.000000 0.000000
vn 0.000000 1.000000 0.000000
vn 0.000000 1.000000 0.000000
vn 0.000000 1.000000 0.000000
vn 0.000000 -1.000000 0.000000
vn 0.000000 -1.000000 0.000000
vn 0.000000 -1.000000 0.000000
vn 0.000000 -1.000000 0.000000
vn -1.000000 0.000000 0.000000
vn -1.000000 0.000000 0.000000
vn -1.000000 0.000000 0.000000
vn -1.000000 0.000000 0.000000
vn 0.000000 1.000000 0.000000
vn 0.000000 1.000000 0.000000
vn 0.000000 1.000000 0.000000
vn 0.000000 1.000000 0.000000
vn 1.000000 0.000000 0.000000
vn 1.000000 0.000000 0.000000
vn 1.000000 0.000000 0.000000
vn 1.000000 0.000000 0.000000
vn 0.000000 -1.000000 0.000000
vn 0.000000 -1.000000 0.000000
vn 0.000000 -1.000000 0.000000
vn 0.000000 -1.000000 0.000000
vn 0.000000 1.000000 0.000000
vn 0.000000 1.000000 0.000000
vn 0.000000 1.000000 0.000000
vn 0.000000 1.000000 0.000000
vn 0.000000 -1.000000 0.000000
vn 0.000000 -1.000000 0.000000
vn 0.000000 -1.000000 0.000000
vn 0.000000 -1.000000 0.000000
vn -1.000000 0.000000 0.000000
vn -1.000000 0.000000 0.000000
vn -1.000000 0.000000 0.000000
vn -1.000000 0.000000 0.000000
vn 0.000000 1.000000 0.000000
vn 0.000000 1.000000 0.000000
vn 0.000000 1.000000 0.000000
vn 0.000000 1.000000 0.000000
vn 0.000000 -1.000000 0.000000
vn 0.000000 -1.000000 0.000000
vn 0.000000 -1.000000 0.000000
vn 0.000000 -1.000000 0.000000
vn 0.000000 1.000000 0.000000
vn 0.000000 1.000000 0.000000
vn 0.000000 1.000000 0.000000
vn 0.000000 1.000000 0.000000
vn 1.000000 0.000000 0.000000
vn 1.000000 0.000000 0.000000
vn 1.000000 0.000000 0.000000
vn 1.000000 0.000000 0.000000
vn 0.000000 -1.000000 0.000000
vn 0.000000 -1.000000 0.000000
vn 0.000000 -1.000000 0.000000
vn 0.000000 -1.000000 0.000000
vn 0.000000 1.000000 0.000000
vn 0.000000 1.000000 0.000000
vn 0.000000 1.000000 0.000000
vn 0.000000 1.000000 0.000000
vn 0.000000 -1.000000 -0.000000
vn 0.000000 -1.000000 -0.000000
vn 0.000000 -1.000000 -0.000000
vn 0.000000 -1.000000 -0.000000
vn -0.992955 0.000000 -0.118491
vn -0.992955 0.000000 -0.118491
vn -0.992955 0.000000 -0.118491
vn -0.992955 0.000000 -0.118491
vn 0.000000 1.000000 -0.000000
vn 0.000000 1.000000 -0.000000
vn 0.000000 1.000000 -0.000000
vn 0.000000 1.000000 -0.000000
vn 0.992955 0.000000 -0.118491
vn 0.992955 0.000000 -0.118491
vn 0.992955 0.000000 -0.118491
vn 0.992955 0.000000 -0.118491
vn 0.000000 -1.000000 -0.000000
vn 0.000000 -1.000000 -0.000000
vn 0.000000 -1.000000 -0.000000
vn 0.000000 -1.000000 -0.000000
s 1
g pCube1
usemtl initialShadingGroup
f 1/1/1 2/2/2 11/80/3 10/73/4
f 2/2/2 3/5/5 12/79/6 11/80/3
f 3/5/5 4/7/7 13/78/8 12/79/6
f 4/7/7 5/9/9 14/77/10 13/78/8
f 5/9/9 6/11/11 15/76/12 14/77/10
f 6/11/11 7/13/13 16/75/14 15/76/12
f 7/13/13 8/15/15 17/74/16 16/75/14
f 8/15/15 9/17/17 18/18/18 17/74/16
s 2
f 10/3/19 11/4/20 20/6/21 19/8/22
f 11/4/20 12/10/23 21/12/24 20/6/21
f 12/10/23 13/14/25 22/16/26 21/12/24
f 13/14/25 14/19/27 23/20/28 22/16/26
f 14/19/27 15/22/29 24/23/30 23/20/28
f 15/22/29 16/25/31 25/26/32 24/23/30
f 16/25/31 17/29/33 26/35/34 25/26/32
f 17/29/33 18/38/35 27/45/36 26/35/34
s 3
f 51/28/37 52/57/38 53/30/39 54/31/40
f 52/57/38 55/32/41 56/33/42 53/30/39
s 4
f 43/34/43 44/65/44 45/36/45 46/37/46
f 44/65/44 47/62/47 48/39/48 45/36/45
f 47/62/47 49/40/49 50/41/50 48/39/48
s off
f 24/24/51 25/71/52 34/42/53 33/43/54
s 5
f 37/44/55 38/67/56 39/46/57 40/47/58
f 38/67/56 41/48/59 42/49/60 39/46/57
s 6
f 28/50/61 29/51/62 2/2/63 1/1/64
f 29/51/62 30/52/65 3/5/66 2/2/63
f 30/52/65 31/53/67 4/7/68 3/5/66
f 31/53/67 32/54/69 5/9/70 4/7/68
f 32/54/69 33/43/71 6/11/72 5/9/70
f 33/43/71 34/42/73 7/13/74 6/11/72
f 34/42/73 35/55/75 8/15/76 7/13/74
f 35/55/75 36/56/77 9/17/78 8/15/76
s off
f 9/17/79 36/56/80 27/27/81 18/18/82
f 28/50/83 1/1/84 10/73/85 19/61/86
f 25/26/87 26/35/88 38/58/89 37/59/90
f 35/55/91 34/42/92 40/47/93 39/46/94
f 34/42/95 25/71/96 37/44/97 40/47/98
f 26/35/99 27/45/100 41/60/101 38/58/102
f 27/27/103 36/56/104 42/49/105 41/48/106
f 36/56/107 35/55/108 39/46/109 42/49/110
f 21/12/111 22/16/112 44/63/113 43/64/114
f 31/53/115 30/52/116 46/37/117 45/36/118
f 30/52/119 21/21/120 43/34/121 46/37/122
f 22/16/123 23/20/124 47/66/125 44/63/126
f 32/54/127 31/53/128 45/36/129 48/39/130
f 23/20/131 24/23/132 49/68/133 47/66/134
f 24/24/135 33/43/136 50/41/137 49/40/138
f 33/43/139 32/54/140 48/39/141 50/41/142
f 19/8/143 20/6/144 52/69/145 51/70/146
f 29/51/147 28/50/148 54/31/149 53/30/150
f 28/50/151 19/61/152 51/28/153 54/31/154
f 20/6/155 21/12/156 55/72/157 52/69/158
f 21/21/159 30/52/160 56/33/161 55/32/162
f 30/52/163 29/51/164 53/30/165 56/33/166
